<?xml version="1.0" encoding="utf-8"?>
<!-- Generator: Adobe Illustrator 18.1.0, SVG Export Plug-In . SVG Version: 6.00 Build 0)  -->
<svg version="1.1" id="Layer_1" xmlns="http://www.w3.org/2000/svg" xmlns:xlink="http://www.w3.org/1999/xlink" x="0px" y="0px"
	 viewBox="0 0 500 500" enable-background="new 0 0 500 500" xml:space="preserve">
<path fill="#010101" d="M496.8,450.4L265,33.7c-8.2-14.9-21.7-14.9-30,0L3.2,450.4c-8.2,14.9-0.1,27,18,27h457.7
	C497,477.4,505,465.3,496.8,450.4z M274.2,422.4c0,5.5-4.5,9.9-9.9,9.9h-28.9c-5.5,0-9.9-4.5-9.9-9.9v-28.7c0-5.5,4.5-9.9,9.9-9.9
	h28.9c5.5,0,9.9,4.5,9.9,9.9V422.4z M275.9,351.2c-0.4,5.4-5.2,9.9-10.6,9.9h-5.4c-5.5,0-14.4,0-19.7,0h-5.4
	c-5.5,0-10.2-4.4-10.6-9.9l-13.5-177.4c-0.4-5.4,3.7-9.9,9.1-9.9h20.4c5.5,0,14.4,0,19.7,0h20.4c5.5,0,9.5,4.4,9.1,9.9L275.9,351.2z
	"/>
</svg>
