<?xml version="1.0" encoding="utf-8"?>
<!-- Generator: Adobe Illustrator 18.1.0, SVG Export Plug-In . SVG Version: 6.00 Build 0)  -->
<svg version="1.1" id="Layer_1" xmlns="http://www.w3.org/2000/svg" xmlns:xlink="http://www.w3.org/1999/xlink" x="0px" y="0px"
	 viewBox="0 0 500 500" enable-background="new 0 0 500 500" xml:space="preserve">
<g>
	<path fill="#010101" d="M500,175.1c0-43.6-48.4-79-107.8-79c-38.4,0-72.1,14.9-91.2,37.1c49.5,25.9,82,69.3,82,118.2
		c0,0.9,0,1.6-0.1,2.5c3.1,0.2,6.1,0.4,9.2,0.4c10.8,0,21.2-1.2,31.2-3.3c17.4,7.9,38.2,13.5,60.2,11.8c0,0-21.5-9.3-33.4-20.8
		C480.1,227.7,500,203.1,500,175.1z"/>
	<path fill="#010101" d="M181,128.6c-99.8,0-181,60.5-181,134.9c0,47,32.4,88.5,81.4,112.6c-19.4,15.3-46.3,27-46.3,27
		c29.7,2.5,58-3.7,82.8-13.1c19.6,5.5,40.9,8.5,63.1,8.5c99.8,0,181.1-60.5,181.1-134.9C362.1,189.2,280.9,128.6,181,128.6z"/>
</g>
</svg>
