<?xml version="1.0" encoding="utf-8"?>
<!-- Generator: Adobe Illustrator 18.1.0, SVG Export Plug-In . SVG Version: 6.00 Build 0)  -->
<svg version="1.1" id="Layer_1" xmlns="http://www.w3.org/2000/svg" xmlns:xlink="http://www.w3.org/1999/xlink" x="0px" y="0px"
	 viewBox="0 0 500 500" enable-background="new 0 0 500 500" xml:space="preserve">
<g>
	<path fill="#010101" d="M500,319.2c0-30.4-18.5-57.6-47.9-76.5c-20.2,75-106.6,132.4-211.9,137.1c26.1,25.6,68.3,42.2,116,42.2
		c6,0,11.8-0.2,17.5-0.8c7.6,6.4,36,27.1,83,30c0,0-18.9-18.9-24.4-44.9C473,388.2,500,356,500,319.2z"/>
	<path fill="#010101" d="M219.5,195.9c-8.9,0-16,7.1-16,16c0,8.9,7.1,16,16,16c8.9,0,16-7.1,16-16
		C235.5,203,228.4,195.9,219.5,195.9z"/>
	<circle fill="#010101" cx="154.2" cy="211.9" r="16"/>
	<circle fill="#010101" cx="284.8" cy="211.9" r="16"/>
	<path fill="#010101" d="M438.9,208.9c0-88.4-98.4-160.2-219.4-160.2C98.5,48.6,0,120.5,0,208.9c0,53.6,35.6,102.6,95.9,132.5
		c-9,29.6-29.8,50.8-30,51c-3.2,3.2-4.1,8.2-2.3,12.5c1.9,4,5.9,6.6,10.2,6.6c0.2,0,0.5,0,0.8,0c65.4-4,107.5-31.1,123-43.1
		c7.5,0.5,14.8,0.9,21.9,0.9C340.5,369,438.9,297.1,438.9,208.9z M219.5,346.6c-7.9,0-15.9-0.4-24.5-1.1c-2.9-0.3-5.9,0.6-8.1,2.5
		c-8.9,7.4-38.6,29.2-87.8,37.9c8.1-12.4,16.8-29.1,20.9-48.5c1.1-5.1-1.6-10.4-6.4-12.5c-57.1-25.6-91.2-69-91.2-116.1
		c0-76,88.4-137.9,197-137.9s197,61.9,197,137.9C416.5,284.9,328.1,346.6,219.5,346.6z"/>
</g>
</svg>
