<?xml version="1.0" encoding="utf-8"?>
<!-- Generator: Adobe Illustrator 18.1.0, SVG Export Plug-In . SVG Version: 6.00 Build 0)  -->
<svg version="1.1" id="Layer_1" xmlns="http://www.w3.org/2000/svg" xmlns:xlink="http://www.w3.org/1999/xlink" x="0px" y="0px"
	 viewBox="0 0 500 500" enable-background="new 0 0 500 500" xml:space="preserve">
<g>
	<g>
		<path fill="#010101" d="M485.2,232.4c0.3-0.3,0.1-0.5-0.1-0.5l-142.5-20.6c-0.4,0-0.8-0.4-0.9-0.6L278,81.4
			c-0.1-0.3-0.4-0.3-0.5,0l-63.7,129.2c-0.1,0.3-0.5,0.6-0.9,0.6L70.2,231.9c-0.4,0-0.4,0.3-0.1,0.5l103.1,100.6
			c0.3,0.3,0.4,0.8,0.4,1l-24.3,142c0,0.4,0.1,0.5,0.5,0.4l127.4-67c0.3-0.1,0.8-0.1,1.1,0l127.4,67c0.3,0.1,0.5,0,0.5-0.4
			l-24.4-142c0-0.4,0.1-0.8,0.4-1L485.2,232.4z"/>
	</g>
	<g>
		<path fill="#010101" d="M139.1,112.6c0.4,0,0.4-0.3,0.3-0.5l-32.2-35.3c-0.3-0.3-0.4-0.8-0.3-1.1L117.7,29
			c0.1-0.4-0.1-0.5-0.4-0.4L73.7,48.4c-0.4,0.1-0.8,0.1-1.1-0.1L31.7,23.8c-0.3-0.1-0.5,0-0.5,0.3l5.3,47.5c0,0.4-0.1,0.8-0.4,1
			L0,103.8c-0.3,0.3-0.3,0.5,0.1,0.5L47,114c0.4,0.1,0.8,0.4,0.9,0.8l18.5,44.1c0.1,0.4,0.4,0.4,0.5,0l23.6-41.5
			c0.1-0.3,0.6-0.6,0.9-0.6L139.1,112.6z"/>
	</g>
	<g>
		<path fill="#010101" d="M423.7,138.3c-0.1,0.4,0.1,0.5,0.4,0.4l25-10.6c0.4-0.1,0.8-0.1,1.1,0.1l22.9,14.4c0.3,0.1,0.5,0,0.5-0.3
			l-2.4-27c0-0.4,0.1-0.8,0.4-1L492.3,97c0.3-0.3,0.3-0.5-0.1-0.5l-26.5-6c-0.4-0.1-0.8-0.4-0.9-0.8l-10-25.2
			c-0.1-0.4-0.4-0.4-0.5,0l-13.9,23.3c-0.1,0.3-0.6,0.5-1,0.6l-27,1.8c-0.4,0-0.5,0.3-0.3,0.5l17.9,20.4c0.3,0.3,0.4,0.8,0.3,1.1
			L423.7,138.3z"/>
	</g>
	<g>
		<path fill="#010101" d="M488.5,396c-0.3-0.3-0.4-0.8-0.4-1l2.9-16.1c0-0.4-0.1-0.5-0.5-0.4L476,386c-0.3,0.1-0.8,0.1-1.1,0
			l-14.4-7.7c-0.3-0.1-0.5,0-0.5,0.4l2.5,16.2c0,0.4-0.1,0.8-0.4,1l-11.9,11.3c-0.3,0.3-0.1,0.5,0.1,0.5l16.2,2.5
			c0.4,0,0.8,0.4,0.9,0.6l7.1,14.7c0.1,0.3,0.4,0.3,0.5,0l7.5-14.6c0.1-0.3,0.5-0.6,0.9-0.6l16.2-2.2c0.4,0,0.4-0.3,0.1-0.5
			L488.5,396z"/>
	</g>
</g>
</svg>
