<?xml version="1.0" encoding="utf-8"?>
<!-- Generator: Adobe Illustrator 18.1.0, SVG Export Plug-In . SVG Version: 6.00 Build 0)  -->
<svg version="1.1" id="Layer_1" xmlns="http://www.w3.org/2000/svg" xmlns:xlink="http://www.w3.org/1999/xlink" x="0px" y="0px"
	 viewBox="0 0 500 500" enable-background="new 0 0 500 500" xml:space="preserve">
<path fill="#010101" d="M471.8,225.2c0-31.4-25.5-57-57-57h-30.2v0.1h-84l37.4-89.8c12.1-28.9-1.6-62.1-30.6-74.1
	C278.4-7.6,245.2,6.1,233.1,35l-30.4,73.1c-8.4,13.7-34.8,25.9-34.8,25.9l0,0C87.7,154.5,28.2,227.3,28.2,314
	c0,102,82.1,184.9,184,186v-0.1h115.9v0.1h30.1c0.6,0,1.1-0.1,1.8-0.1h0.1l0,0c30.6-1,55.1-26,55.1-57c0-8.3-1.9-16.2-5-23.4
	c17-9.9,28.3-28.2,28.3-49.2c0-8.8-2-17.1-5.7-24.5c15.8-10.1,26.4-27.8,26.4-48.1c0-10.6-2.9-20.5-7.9-28.9
	C463.8,258.4,471.8,242.7,471.8,225.2z M414.7,240.8h-12.5h-17.6h-12.5v0.1c-11.4,0-20.6,9.3-20.6,20.6c0,11.4,9.3,20.6,20.6,20.6
	h0.1h12.3h17.7c8.6,0,15.6,7,15.6,15.6c0,8.6-7,15.6-15.6,15.6h-20.8h-9.3h-20.8v0.1c-11.4,0-20.6,9.3-20.6,20.6
	c0,11.4,9.3,20.6,20.6,20.6h0.1h20.6h9.3c8.6,0,15.6,7,15.6,15.6c0,8.6-7,15.6-15.6,15.6h-23.4h-6.8h-23.3v0.1
	c-11.4,0-20.6,9.3-20.6,20.6c0,11.4,9.3,20.6,20.6,20.6h0.1h23.1h6.8c8.6,0,15.6,7,15.6,15.6c0,8.6-6.9,15.5-15.3,15.6H212.3l0,0
	C133.5,457.4,69.7,393.1,69.7,314s63.8-143.4,142.5-144.5v0c2.5-0.4,10.8-2.4,13.3-8.4l45.9-110.2c3.3-7.8,12.2-11.4,20-8.3
	c7.8,3.3,11.4,12.2,8.2,20l-48.1,117c-0.5,1-1,2.1-1.4,3.3l-0.5,1.4l0.1,0.1c-0.4,1.5-0.6,3.1-0.6,4.8c0,11.4,9.3,20.6,20.6,20.6
	l0,0h134.8l0,0h0.5h0.1h0.1h9.3c8.6,0,15.6,7,15.6,15.6C430.3,233.8,423.3,240.8,414.7,240.8z"/>
</svg>
